<mxfile host="app.diagrams.net" modified="2024-02-23T16:02:29.147Z" agent="Mozilla/5.0 (Windows NT 10.0; Win64; x64) AppleWebKit/537.36 (KHTML, like Gecko) Chrome/122.0.0.0 Safari/537.36" version="23.1.6" etag="NQC1a1Y9SAVzxeOBRjC6" type="github">
  <diagram name="Page-1" id="gjn546yJCr_9rxce2QaD">
    <mxGraphModel>
      <root>
        <mxCell id="0" />
        <mxCell id="1" parent="0" />
      </root>
    </mxGraphModel>
  </diagram>
</mxfile>
